# AST/ASF file generated using VICON BodyLanguage
# -----------------------------------------------
:version 1.10
:name VICON
:units
  mass 1.0
  length 0.45
  angle deg
:documentation
   .ast/.asf automatically generated from VICON data using
   VICON BodyBuilder and BodyLanguage model FoxedUp or BRILLIANT.MOD
:root
   order TX TY TZ RX RY RZ
   axis XYZ
   position 0 0 0  
   orientation 0 0 0 
:bonedata
  begin
     id 1 
     name lhipjoint
     direction 0.660183 -0.676772 0.325788 
     length 2.75133 
     axis 0 0 0  XYZ
  end
  begin
     id 2 
     name lfemur
     direction 0.34202 -0.939693 0  
     length 7.70317  
     axis 0 0 20  XYZ
    dof rx ry rz
    limits (-160.0 20.0)
           (-70.0 70.0)
           (-60.0 70.0)
  end
  begin
     id 3 
     name ltibia
     direction 0.342105 -0.939662 0   
     length 7.18701   
     axis 0 0 20   XYZ
    dof rx
    limits (-10.0 170.0)
  end
  begin
     id 4 
     name lfoot
     direction 0.14163 -0.389126 0.910232   
     length 2.41719   
     axis -90 7.62852e-016 20   XYZ
    dof rx rz
    limits (-45.0 90.0)
           (-70.0 20.0)
  end
  begin
     id 5 
     name ltoes
     direction 1.53533e-011 -4.21926e-011 1   
     length 1.18611   
     axis -90 7.62852e-016 20   XYZ
    dof rx
    limits (-90.0 20.0)
  end
  begin
     id 6 
     name rhipjoint
     direction -0.6658 -0.67229 0.323631   
     length 2.76968  
     axis 0 0 0  XYZ 
  end
  begin
     id 7 
     name rfemur
     direction -0.34202 -0.939693 0   
     length 7.92547   
     axis 0 0 -20   XYZ
    dof rx ry rz
    limits (-160.0 20.0)
           (-70.0 70.0)
           (-70.0 60.0)
  end
  begin
     id 8 
     name rtibia
     direction -0.342022 -0.939692 0   
     length 7.22641   
     axis 0 0 -20   XYZ
    dof rx
    limits (-10.0 170.0)
 end
 begin
     id 9 
     name rfoot
     direction -0.105675 -0.29034 0.951071   
     length 2.48149  
     axis -90 -7.62852e-016 -20   XYZ
    dof rx rz
    limits (-45.0 90.0)
           (-20.0 70.0)
  end
  begin
     id 10 
     name rtoes
     direction -1.5349e-011 -4.21859e-011 1   
     length 1.23343   
     axis -90 -7.62852e-016 -20   XYZ
    dof rx
    limits (-90.0 20.0)
  end
  begin
     id 11 
     name lowerback
     direction 0.0104173 0.993624 -0.112266   
     length 2.00527   
     axis 0 0 0   XYZ
    dof rx ry rz
    limits (-20.0 45.0)
           (-30.0 30.0)
           (-30.0 30.0)
  end
  begin
     id 12 
     name upperback
     direction 0.00733149 0.999856 -0.0152913   
     length 2.01385   
     axis 0 0 0   XYZ
    dof rx ry rz
    limits (-20.0 45.0)
           (-30.0 30.0)
           (-30.0 30.0)
  end
  begin
     id 13 
     name thorax
     direction 0.0026304 0.999318 0.036841   
     length 2.03734   
     axis 0 0 0   XYZ
    dof rx ry rz
    limits (-20.0 45.0)
           (-30.0 30.0)
           (-30.0 30.0)
  end
  begin
     id 14 
     name lowerneck
     direction 0.0293154 0.998757 0.0403082   
     length 1.65303   
     axis 0 0 0   XYZ
    dof rx ry rz
    limits (-20.0 45.0)
           (-30.0 30.0)
           (-30.0 30.0)
  end
  begin
     id 15 
     name upperneck
     direction -0.0376619 0.998184 -0.0470083   
     length 1.60926   
     axis 0 0 0   XYZ
    dof rx ry rz
    limits (-20.0 45.0)
           (-30.0 30.0)
           (-30.0 30.0)
  end
  begin
     id 16
     name head
     direction -0.0170133 0.999635 -0.0209778  
     length 1.73625  
     axis 0 0 0   XYZ
    dof rx ry rz
    limits (-20.0 45.0)
           (-30.0 30.0)
           (-30.0 30.0)
  end
  begin
     id 17 
     name lclavicle
     direction 0.919857 0.39181 -0.0186333  
     length 3.75313  
     axis 0 0 0   XYZ
    dof ry rz
    limits (-20.0 10.0)
           (0.0 20.0)
  end
  begin
     id 18 
     name lhumerus
     direction 1 -4.48988e-011 1.44029e-027   
     length 5.49313   
     axis 180 -30 -90   XYZ
    dof rx ry rz
    limits (-60.0 90.0)
           (-90.0 90.0)
           (-90.0 90.0)
  end
  begin
     id 19
     name lradius
     direction 1 -4.48924e-011 7.46281e-027   
     length 3.29037   
     axis 180 -30 -90   XYZ
    dof rx
    limits (-10.0 170.0)
  end
  begin
     id 20
     name lwrist
     direction 1 -4.48955e-011 2.19879e-026   
     length 1.64519   
     axis -1.34358e-014 90 90   XYZ
    dof ry
    limits (-180.0 0.0)
 end
  begin
     id 21 
     name lhand
     direction 1 -4.48978e-011 4.39747e-026   
     length 0.729656   
     axis -2.80598e-014 90 90   XYZ
    dof rx rz
    limits (-90.0 90.0)
           (-45.0 45.0)
  end
  begin
     id 22 
     name lfingers
     direction 1 -4.49071e-011 8.79411e-026   
     length 0.588268   
     axis -5.61193e-014 90 90   XYZ
    dof rx
    limits (0.0 90.0)
  end
  begin
     id 23
     name lthumb
     direction 0.707107 -6.34817e-011 0.707107   
     length 0.844638   
     axis -90 45 -9.86923e-015   XYZ
    dof rx rz
    limits (-45.0 45.0)
           (-45.0 45.0)
  end
  begin
     id 24 
     name rclavicle
     direction -0.919898 0.388279 0.0550233   
     length 3.7171  
     axis 0 0 0   XYZ 
    dof ry rz
    limits (-10.0 20.0)
           (-20.0 0.0)
  end
  begin
     id 25 
     name rhumerus
     direction -1 -4.48968e-011 9.98372e-028  
     length 5.23684   
     axis 180 30 90   XYZ
    dof rx ry rz
    limits (-90.0 60.0)
           (-90.0 90.0)
           (-90.0 90.0)
  end
  begin
     id 26 
     name rradius
     direction -1 -4.48956e-011 1.01023e-026   
     length 3.38251   
     axis 180 30 90   XYZ
    dof rx
    limits (-10.0 170.0)
  end
  begin
     id 27 
     name rwrist
     direction -1 -4.4892e-011 2.19886e-026   
     length 1.69126   
     axis -1.34358e-014 -90 -90   XYZ
    dof ry
    limits (-180.0 0.0)
  end
  begin
     id 28
     name rhand
     direction -1 -4.49024e-011 4.39727e-026   
     length 0.691454   
     axis -2.80598e-014 -90 -90   XYZ
    dof rx rz
    limits (-90.0 90.0)
           (-45.0 45.0)
  end
  begin
     id 29
     name rfingers
     direction -1 -4.49097e-011 8.79388e-026   
     length 0.557468   
     axis -5.61193e-014 -90 -90   XYZ
    dof rx
    limits (0.0 90.0)
  end
  begin
     id 30
     name rthumb
     direction -0.707107 -6.34938e-011 0.707107   
     length 0.800416   
     axis -90 -45 9.86923e-015   XYZ
    dof rx rz
    limits (-45.0 45.0)
           (-45.0 45.0)
  end
:hierarchy
  begin
    root lhipjoint rhipjoint lowerback
    lhipjoint lfemur
    lfemur ltibia
    ltibia lfoot
    lfoot ltoes
    rhipjoint rfemur
    rfemur rtibia
    rtibia rfoot
    rfoot rtoes
    lowerback upperback
    upperback thorax
    thorax lowerneck lclavicle rclavicle
    lowerneck upperneck
    upperneck head
    lclavicle lhumerus
    lhumerus lradius
    lradius lwrist
    lwrist lhand lthumb
    lhand lfingers
    rclavicle rhumerus
    rhumerus rradius
    rradius rwrist
    rwrist rhand rthumb
    rhand rfingers
  end

#!OML:ASF H:\BabyWalks\Project 1\Capture day 1\Session 1\baby.ASF
:FULLY-SPECIFIED
:DEGREES
119
root -31.3337 17.6487 -1.92884 -20.4267 77.0915 -23.8191
lowerback 17.0174 -0.746115 -1.99377
upperback 7.80399 -0.802645 2.40832
thorax -1.13639 -0.322445 3.80489
lowerneck -0.172674 5.73961 2.18312
upperneck 1.01842 7.74339 -6.6623
head 0.720911 3.85533 -2.3953
rclavicle 1.21259e-014 9.14409e-015
rhumerus -42.1901 21.4916 -82.4113
rradius 41.5022
rwrist -3.67868
rhand -2.9394 -17.641
rfingers 7.12502
rthumb 22.7721 -46.3169
lclavicle 1.21259e-014 9.14409e-015
lhumerus -45.4276 -0.680172 82.3519
lradius 49.853
lwrist 3.1664
lhand 6.1352 12.8067
lfingers 7.12502
lthumb 31.4521 40.121
rfemur 1.83936 1.45467 27.007
rtibia 15.9
rfoot -19.182 -20.8812
rtoes 0.723776
lfemur -23.6955 7.01583 -14.1921
ltibia 35.7373
lfoot -13.4958 5.27622
ltoes -3.84455
120
root -31.3356 17.6471 -1.92676 -20.4739 77.117 -23.8351
lowerback 17.0255 -0.751081 -1.984
upperback 7.81291 -0.806948 2.40687
thorax -1.13099 -0.324171 3.79862
lowerneck -0.162611 5.71929 2.20381
upperneck 1.04899 7.71806 -6.67416
head 0.729067 3.84239 -2.40313
rclavicle -4.37326e-015 3.67752e-014
rhumerus -42.158 21.4415 -82.389
rradius 41.4115
rwrist -3.61443
rhand -2.95728 -17.6101
rfingers 7.12502
rthumb 22.755 -46.2882
lclavicle -4.37326e-015 3.67752e-014
lhumerus -45.4101 -0.674345 82.3583
lradius 49.7566
lwrist 3.1456
lhand 6.12015 12.832
lfingers 7.12502
lthumb 31.4378 40.1491
rfemur 1.84082 1.47595 27.0193
rtibia 15.961
rfoot -19.2057 -20.9342
rtoes 0.739078
lfemur -23.6814 7.0097 -14.1916
ltibia 35.7523
lfoot -13.5003 5.26074
ltoes -3.93144
121
root -31.3371 17.6456 -1.9245 -20.5376 77.1428 -23.8666
lowerback 17.0301 -0.75553 -1.96988
upperback 7.82107 -0.809936 2.4062
thorax -1.12478 -0.325181 3.79039
lowerneck -0.153699 5.69722 2.22326
upperneck 1.08747 7.69074 -6.68182
head 0.739564 3.82831 -2.40924
rclavicle 2.15681e-014 -3.18055e-014
rhumerus -42.1171 21.3797 -82.3659
rradius 41.2975
rwrist -3.53243
rhand -2.97467 -17.5659
rfingers 7.12502
rthumb 22.7383 -46.2461
lclavicle 2.15681e-014 -3.18055e-014
lhumerus -45.3917 -0.669814 82.3624
lradius 49.669
lwrist 3.12691
lhand 6.0942 12.8471
lfingers 7.12502
lthumb 31.4131 40.169
rfemur 1.85366 1.50482 27.0368
rtibia 16.0062
rfoot -19.2272 -20.9955
rtoes 0.762801
lfemur -23.666 7.00292 -14.1872
ltibia 35.7694
lfoot -13.501 5.24571
ltoes -4.00864
122
root -31.3382 17.6441 -1.92215 -20.6191 77.1696 -23.9163
lowerback 17.0339 -0.760355 -1.95149
upperback 7.82653 -0.812862 2.4069
thorax -1.12113 -0.326064 3.78119
lowerneck -0.148764 5.67412 2.24065
upperneck 1.13699 7.6625 -6.68505
head 0.753882 3.81354 -2.41328
rclavicle 8.24956e-015 7.15625e-015
rhumerus -42.0825 21.3187 -82.3463
rradius 41.1879
rwrist -3.4448
rhand -2.98501 -17.5289
rfingers 7.12502
rthumb 22.7283 -46.2102
lclavicle 8.24956e-015 7.15625e-015
lhumerus -45.3758 -0.664084 82.3646
lradius 49.5924
lwrist 3.10713
lhand 6.05709 12.8565
lfingers 7.12502
lthumb 31.3777 40.1853
rfemur 1.87742 1.5374 27.0591
rtibia 16.0335
rfoot -19.2459 -21.0623
rtoes 0.800264
lfemur -23.6514 6.99475 -14.1791
ltibia 35.7894
lfoot -13.5041 5.23098
ltoes -4.09711
123
root -31.3389 17.6427 -1.91963 -20.7295 77.1958 -23.9948
lowerback 17.0362 -0.764843 -1.92773
upperback 7.83046 -0.814516 2.4102
thorax -1.11845 -0.326225 3.77144
lowerneck -0.147363 5.65055 2.2593
upperneck 1.19602 7.6341 -6.68645
head 0.771769 3.79847 -2.41671
rclavicle 1.48095e-014 -2.96189e-014
rhumerus -42.0562 21.2613 -82.3305
rradius 41.0884
rwrist -3.35724
rhand -2.99139 -17.5029
rfingers 7.12502
rthumb 22.7222 -46.185
lclavicle 1.48095e-014 -2.96189e-014
lhumerus -45.3614 -0.6589 82.3657
lradius 49.5276
lwrist 3.08858
lhand 6.00654 12.8656
lfingers 7.12502
lthumb 31.3296 40.2038
rfemur 1.9129 1.57452 27.0895
rtibia 16.0416
rfoot -19.2577 -21.1351
rtoes 0.837296
lfemur -23.6364 6.98415 -14.1632
ltibia 35.8126
lfoot -13.5112 5.21722
ltoes -4.19424
124
root -31.3392 17.6415 -1.91706 -20.8548 77.2205 -24.0894
lowerback 17.0363 -0.768792 -1.90042
upperback 7.83237 -0.814981 2.41543
thorax -1.11697 -0.325752 3.7615
lowerneck -0.149379 5.62693 2.2758
upperneck 1.26236 7.60592 -6.6837
head 0.792278 3.78335 -2.41819
rclavicle 1.66979e-014 -1.39149e-015
rhumerus -42.0395 21.2075 -82.3173
rradius 41.0031
rwrist -3.26984
rhand -2.99184 -17.4847
rfingers 7.12502
rthumb 22.7218 -46.1668
lclavicle 1.66979e-014 -1.39149e-015
lhumerus -45.3501 -0.652057 82.3652
lradius 49.4771
lwrist 3.07338
lhand 5.94471 12.8737
lfingers 7.12502
lthumb 31.2706 40.2232
rfemur 1.95969 1.60988 27.1235
rtibia 16.0287
rfoot -19.2628 -21.2062
rtoes 0.879569
lfemur -23.6219 6.97155 -14.1425
ltibia 35.8395
lfoot -13.5155 5.20415
ltoes -4.27529
